<?xml version="1.0" encoding="iso-8859-1"?>
<!-- Generator: Adobe Illustrator 19.0.0, SVG Export Plug-In . SVG Version: 6.00 Build 0)  -->
<svg version="1.1" id="Layer_1" xmlns="http://www.w3.org/2000/svg" xmlns:xlink="http://www.w3.org/1999/xlink" x="0px" y="0px"
	 viewBox="0 0 512 512" style="enable-background:new 0 0 512 512;" xml:space="preserve">
<g>
	<rect x="449.362" y="8.17" style="fill:#FFFFFF;" width="54.468" height="54.468"/>
	<rect x="449.362" y="449.362" style="fill:#FFFFFF;" width="54.468" height="54.468"/>
	<rect x="449.362" y="227.306" style="fill:#FFFFFF;" width="54.468" height="54.468"/>
	<rect x="8.17" y="8.17" style="fill:#FFFFFF;" width="54.468" height="54.468"/>
	<rect x="8.17" y="449.362" style="fill:#FFFFFF;" width="54.468" height="54.468"/>
	<rect x="8.17" y="227.306" style="fill:#FFFFFF;" width="54.468" height="54.468"/>
	<rect x="230.226" y="8.17" style="fill:#FFFFFF;" width="54.468" height="54.468"/>
	<rect x="230.226" y="449.362" style="fill:#FFFFFF;" width="54.468" height="54.468"/>
</g>
<path style="fill:#A0F6FA;" d="M217.055,157.742l-52.823-7.364c-28.879,25.469-47.126,62.725-47.126,104.165
	s18.247,78.695,47.126,104.165l52.823-7.364l25.328-96.801L217.055,157.742z"/>
<path style="fill:#25BBCC;" d="M347.779,150.367l-13.454-0.414v209.179c0,0,13.454-0.414,13.443-0.425
	c28.89-25.469,47.126-62.725,47.126-104.165S376.658,175.847,347.779,150.367z"/>
<path style="fill:#50D1DD;" d="M334.325,160.846l-39.37-3.105l-25.339,96.801l25.339,96.801l39.37-3.105
	c17.31-24.718,27.888-57.627,27.888-93.696S351.635,185.564,334.325,160.846z"/>
<path style="fill:#78E3EC;" d="M294.956,179.529h-77.9c-4.652,21.646-7.353,47.398-7.353,75.013s2.702,53.368,7.353,75.013h77.9
	c4.652-21.646,7.342-47.398,7.342-75.013S299.607,201.175,294.956,179.529z"/>
<path style="fill:#F0FEFF;" d="M164.232,150.378c15.066,13.29,33.04,23.378,52.823,29.151L256,115.649
	C220.857,115.649,188.721,128.776,164.232,150.378z"/>
<path style="fill:#78E3EC;" d="M257.373,115.66l76.953,45.187c4.695-3.214,9.183-6.71,13.443-10.469
	C323.606,129.048,291.982,115.987,257.373,115.66z"/>
<path style="fill:#A0F6FA;" d="M257.373,115.66c-0.458-0.011-0.915-0.011-1.373-0.011l38.956,63.88
	c14.194-4.15,27.452-10.501,39.37-18.683C315.185,133.493,287.798,116.161,257.373,115.66z"/>
<path style="fill:#F0FEFF;" d="M217.055,329.556c-19.783,5.774-37.757,15.861-52.823,29.151
	c24.489,21.602,56.625,34.729,91.768,34.729L217.055,329.556z"/>
<path style="fill:#78E3EC;" d="M347.768,358.707c-4.259-3.758-8.748-7.255-13.443-10.469l-76.953,45.187
	C291.982,393.098,323.606,380.037,347.768,358.707z"/>
<path style="fill:#A0F6FA;" d="M294.956,329.556L256,393.436c0.458,0,0.915,0,1.373-0.011c30.426-0.501,57.812-17.833,76.953-45.187
	C322.407,340.057,309.15,333.706,294.956,329.556z"/>
<g>
	<path style="fill:#D0FBFD;" d="M256,115.649c16.33,0,30.709,25.48,38.956,63.88c-12.364,3.628-25.437,5.567-38.956,5.567
		c-13.519,0-26.591-1.939-38.945-5.567C225.302,141.129,239.681,115.649,256,115.649z"/>
	<path style="fill:#D0FBFD;" d="M294.956,329.556c-8.246,38.4-22.626,63.88-38.956,63.88c-16.319,0-30.698-25.48-38.945-63.88
		c12.353-3.628,25.426-5.567,38.945-5.567C269.519,323.989,282.591,325.928,294.956,329.556z"/>
</g>
<g>
	<path style="fill:#A7CBCF;" d="M482.043,114.7c-4.512,0-8.17-3.658-8.17-8.17V95.636c0-4.512,3.658-8.17,8.17-8.17
		c4.512,0,8.17,3.658,8.17,8.17v10.894C490.213,111.042,486.555,114.7,482.043,114.7z"/>
	<path style="fill:#A7CBCF;" d="M482.043,158.59c-4.512,0-8.17-3.658-8.17-8.17v-10.894c0-4.512,3.658-8.17,8.17-8.17
		c4.512,0,8.17,3.658,8.17,8.17v10.894C490.213,154.932,486.555,158.59,482.043,158.59z"/>
	<path style="fill:#A7CBCF;" d="M482.043,202.482c-4.512,0-8.17-3.658-8.17-8.17v-10.894c0-4.512,3.658-8.17,8.17-8.17
		c4.512,0,8.17,3.658,8.17,8.17v10.894C490.213,198.824,486.555,202.482,482.043,202.482z"/>
	<path style="fill:#A7CBCF;" d="M482.043,334.567c-4.512,0-8.17-3.658-8.17-8.17v-10.894c0-4.512,3.658-8.17,8.17-8.17
		c4.512,0,8.17,3.658,8.17,8.17v10.894C490.213,330.909,486.555,334.567,482.043,334.567z"/>
	<path style="fill:#A7CBCF;" d="M482.043,379.186c-4.512,0-8.17-3.658-8.17-8.17v-10.894c0-4.512,3.658-8.17,8.17-8.17
		c4.512,0,8.17,3.658,8.17,8.17v10.894C490.213,375.528,486.555,379.186,482.043,379.186z"/>
	<path style="fill:#A7CBCF;" d="M482.043,423.806c-4.512,0-8.17-3.658-8.17-8.17v-10.894c0-4.512,3.658-8.17,8.17-8.17
		c4.512,0,8.17,3.658,8.17,8.17v10.894C490.213,420.148,486.555,423.806,482.043,423.806z"/>
	<path style="fill:#A7CBCF;" d="M40.851,114.7c-4.512,0-8.17-3.658-8.17-8.17V95.636c0-4.512,3.658-8.17,8.17-8.17
		s8.17,3.658,8.17,8.17v10.894C49.021,111.042,45.363,114.7,40.851,114.7z"/>
	<path style="fill:#A7CBCF;" d="M40.851,158.59c-4.512,0-8.17-3.658-8.17-8.17v-10.894c0-4.512,3.658-8.17,8.17-8.17
		s8.17,3.658,8.17,8.17v10.894C49.021,154.932,45.363,158.59,40.851,158.59z"/>
	<path style="fill:#A7CBCF;" d="M40.851,202.482c-4.512,0-8.17-3.658-8.17-8.17v-10.894c0-4.512,3.658-8.17,8.17-8.17
		s8.17,3.658,8.17,8.17v10.894C49.021,198.824,45.363,202.482,40.851,202.482z"/>
	<path style="fill:#A7CBCF;" d="M40.851,334.567c-4.512,0-8.17-3.658-8.17-8.17v-10.894c0-4.512,3.658-8.17,8.17-8.17
		s8.17,3.658,8.17,8.17v10.894C49.021,330.909,45.363,334.567,40.851,334.567z"/>
	<path style="fill:#A7CBCF;" d="M40.851,379.186c-4.512,0-8.17-3.658-8.17-8.17v-10.894c0-4.512,3.658-8.17,8.17-8.17
		s8.17,3.658,8.17,8.17v10.894C49.021,375.528,45.363,379.186,40.851,379.186z"/>
	<path style="fill:#A7CBCF;" d="M40.851,423.806c-4.512,0-8.17-3.658-8.17-8.17v-10.894c0-4.512,3.658-8.17,8.17-8.17
		s8.17,3.658,8.17,8.17v10.894C49.021,420.148,45.363,423.806,40.851,423.806z"/>
	<path style="fill:#A7CBCF;" d="M416.364,49.021H405.47c-4.512,0-8.17-3.658-8.17-8.17s3.658-8.17,8.17-8.17h10.894
		c4.512,0,8.17,3.658,8.17,8.17S420.877,49.021,416.364,49.021z"/>
	<path style="fill:#A7CBCF;" d="M372.473,49.021H361.58c-4.512,0-8.17-3.658-8.17-8.17s3.658-8.17,8.17-8.17h10.894
		c4.512,0,8.17,3.658,8.17,8.17S376.986,49.021,372.473,49.021z"/>
	<path style="fill:#A7CBCF;" d="M328.582,49.021h-10.894c-4.512,0-8.17-3.658-8.17-8.17s3.658-8.17,8.17-8.17h10.894
		c4.512,0,8.17,3.658,8.17,8.17S333.095,49.021,328.582,49.021z"/>
	<path style="fill:#A7CBCF;" d="M196.497,49.021h-10.894c-4.512,0-8.17-3.658-8.17-8.17s3.658-8.17,8.17-8.17h10.894
		c4.512,0,8.17,3.658,8.17,8.17S201.01,49.021,196.497,49.021z"/>
	<path style="fill:#A7CBCF;" d="M151.878,49.021h-10.894c-4.512,0-8.17-3.658-8.17-8.17s3.658-8.17,8.17-8.17h10.894
		c4.512,0,8.17,3.658,8.17,8.17S156.39,49.021,151.878,49.021z"/>
	<path style="fill:#A7CBCF;" d="M107.257,49.021H96.364c-4.512,0-8.17-3.658-8.17-8.17s3.658-8.17,8.17-8.17h10.894
		c4.512,0,8.17,3.658,8.17,8.17S111.771,49.021,107.257,49.021z"/>
	<path style="fill:#A7CBCF;" d="M416.364,490.213H405.47c-4.512,0-8.17-3.658-8.17-8.17c0-4.512,3.658-8.17,8.17-8.17h10.894
		c4.512,0,8.17,3.658,8.17,8.17C424.534,486.555,420.877,490.213,416.364,490.213z"/>
	<path style="fill:#A7CBCF;" d="M372.473,490.213H361.58c-4.512,0-8.17-3.658-8.17-8.17c0-4.512,3.658-8.17,8.17-8.17h10.894
		c4.512,0,8.17,3.658,8.17,8.17C380.644,486.555,376.986,490.213,372.473,490.213z"/>
	<path style="fill:#A7CBCF;" d="M328.582,490.213h-10.894c-4.512,0-8.17-3.658-8.17-8.17c0-4.512,3.658-8.17,8.17-8.17h10.894
		c4.512,0,8.17,3.658,8.17,8.17C336.752,486.555,333.095,490.213,328.582,490.213z"/>
	<path style="fill:#A7CBCF;" d="M196.497,490.213h-10.894c-4.512,0-8.17-3.658-8.17-8.17c0-4.512,3.658-8.17,8.17-8.17h10.894
		c4.512,0,8.17,3.658,8.17,8.17C204.667,486.555,201.01,490.213,196.497,490.213z"/>
	<path style="fill:#A7CBCF;" d="M151.878,490.213h-10.894c-4.512,0-8.17-3.658-8.17-8.17c0-4.512,3.658-8.17,8.17-8.17h10.894
		c4.512,0,8.17,3.658,8.17,8.17C160.048,486.555,156.39,490.213,151.878,490.213z"/>
	<path style="fill:#A7CBCF;" d="M107.257,490.213H96.364c-4.512,0-8.17-3.658-8.17-8.17c0-4.512,3.658-8.17,8.17-8.17h10.894
		c4.512,0,8.17,3.658,8.17,8.17C115.428,486.555,111.771,490.213,107.257,490.213z"/>
</g>
<path d="M353.26,144.333c-25.942-22.92-60.001-36.854-97.258-36.854c-81.091,0-147.064,65.973-147.064,147.064
	s65.973,147.064,147.064,147.064s147.064-65.973,147.064-147.064c0-43.8-19.253-83.181-49.734-110.146
	C353.308,144.375,353.284,144.355,353.26,144.333z M300.873,340.129c12.129,4.445,23.597,10.689,34.007,18.587
	c-14.755,11.201-31.952,19.339-50.64,23.47c4.528-7.096,8.631-16.079,12.236-26.892
	C298.072,350.503,299.535,345.428,300.873,340.129z M280.974,350.126c-8.636,25.909-18.563,35.141-24.971,35.141
	c-6.409,0-16.335-9.231-24.971-35.141c-1.538-4.616-2.948-9.519-4.23-14.655c9.511-2.185,19.301-3.311,29.201-3.311
	c9.9,0,19.691,1.125,29.201,3.311C283.921,340.607,282.512,345.511,280.974,350.126z M215.529,355.293
	c3.605,10.813,7.707,19.796,12.236,26.892c-18.687-4.131-35.884-12.271-50.639-23.47c10.41-7.898,21.878-14.142,34.007-18.587
	C212.469,345.428,213.932,350.503,215.529,355.293z M256.002,315.82c-11.06,0-21.997,1.251-32.625,3.673
	c-3.162-17.325-5.018-36.619-5.413-56.78h76.078c-0.395,20.161-2.251,39.454-5.413,56.78C278,317.071,267.062,315.82,256.002,315.82
	z M217.964,246.373c0.395-20.161,2.251-39.456,5.413-56.78c10.629,2.423,21.566,3.673,32.625,3.673
	c11.06,0,21.997-1.251,32.625-3.673c3.162,17.325,5.018,36.619,5.413,56.78H217.964z M256.002,176.926
	c-9.9,0-19.691-1.125-29.201-3.311c1.282-5.137,2.692-10.04,4.23-14.655c8.636-25.909,18.563-35.141,24.971-35.141
	s16.335,9.231,24.971,35.141c1.538,4.616,2.948,9.519,4.23,14.655C275.693,175.8,265.902,176.926,256.002,176.926z M211.131,168.957
	c-12.129-4.445-23.597-10.689-34.007-18.587c14.755-11.2,31.952-19.339,50.639-23.47c-4.528,7.096-8.631,16.079-12.236,26.892
	C213.932,158.583,212.469,163.658,211.131,168.957z M296.475,153.793c-3.605-10.813-7.707-19.796-12.236-26.892
	c18.687,4.131,35.884,12.269,50.639,23.47c-10.41,7.898-21.878,14.142-34.007,18.587
	C299.535,163.658,298.072,158.583,296.475,153.793z M164.518,161.266c13.017,10.365,27.596,18.379,43.096,23.792
	c-3.521,18.723-5.582,39.579-5.995,61.316h-76.078C127.602,213.131,142.138,183.219,164.518,161.266z M125.541,262.714h76.078
	c0.413,21.737,2.473,42.592,5.994,61.316c-15.501,5.414-30.081,13.426-43.096,23.792
	C142.138,325.867,127.602,295.954,125.541,262.714z M347.488,347.82c-13.016-10.365-27.596-18.379-43.096-23.792
	c3.521-18.723,5.582-39.578,5.994-61.315h76.078C384.402,295.953,369.867,325.867,347.488,347.82z M386.463,246.373h-76.078
	c-0.413-21.737-2.473-42.592-5.995-61.316c15.501-5.414,30.081-13.426,43.096-23.792
	C369.867,183.219,384.402,213.133,386.463,246.373z"/>
<path d="M503.83,0h-54.468c-4.512,0-8.17,3.658-8.17,8.17v54.468c0,4.512,3.658,8.17,8.17,8.17h54.468c4.512,0,8.17-3.658,8.17-8.17
	V8.17C512,3.658,508.342,0,503.83,0z M495.66,54.468h-38.128V16.34h38.128V54.468z"/>
<path d="M503.83,441.191h-54.468c-4.512,0-8.17,3.658-8.17,8.17v54.468c0,4.512,3.658,8.17,8.17,8.17h54.468
	c4.512,0,8.17-3.658,8.17-8.17v-54.468C512,444.85,508.342,441.191,503.83,441.191z M495.66,495.66h-38.128v-38.128h38.128V495.66z"
	/>
<path d="M503.83,219.139h-54.468c-4.512,0-8.17,3.658-8.17,8.17v54.468c0,4.512,3.658,8.17,8.17,8.17h54.468
	c4.512,0,8.17-3.658,8.17-8.17v-54.468C512,222.797,508.342,219.139,503.83,219.139z M495.66,273.607h-38.128V235.48h38.128V273.607
	z"/>
<path d="M62.638,0H8.17C3.658,0,0,3.658,0,8.17v54.468c0,4.512,3.658,8.17,8.17,8.17h54.468c4.512,0,8.17-3.658,8.17-8.17V8.17
	C70.809,3.658,67.15,0,62.638,0z M54.468,54.468H16.34V16.34h38.128V54.468z"/>
<path d="M62.638,441.191H8.17c-4.512,0-8.17,3.658-8.17,8.17v54.468c0,4.512,3.658,8.17,8.17,8.17h54.468
	c4.512,0,8.17-3.658,8.17-8.17v-54.468C70.809,444.85,67.15,441.191,62.638,441.191z M54.468,495.66H16.34v-38.128h38.128V495.66z"
	/>
<path d="M62.638,219.139H8.17c-4.512,0-8.17,3.658-8.17,8.17v54.468c0,4.512,3.658,8.17,8.17,8.17h54.468
	c4.512,0,8.17-3.658,8.17-8.17v-54.468C70.809,222.797,67.15,219.139,62.638,219.139z M54.468,273.607H16.34V235.48h38.128V273.607z
	"/>
<path d="M230.222,70.809h54.468c4.512,0,8.17-3.658,8.17-8.17V8.17c0-4.512-3.658-8.17-8.17-8.17h-54.468
	c-4.512,0-8.17,3.658-8.17,8.17v54.468C222.052,67.15,225.71,70.809,230.222,70.809z M238.393,16.34h38.128v38.128h-38.128V16.34z"
	/>
<path d="M284.691,441.191h-54.468c-4.512,0-8.17,3.658-8.17,8.17v54.468c0,4.512,3.658,8.17,8.17,8.17h54.468
	c4.512,0,8.17-3.658,8.17-8.17v-54.468C292.861,444.85,289.203,441.191,284.691,441.191z M276.52,495.66h-38.128v-38.128h38.128
	V495.66z"/>
<g>
</g>
<g>
</g>
<g>
</g>
<g>
</g>
<g>
</g>
<g>
</g>
<g>
</g>
<g>
</g>
<g>
</g>
<g>
</g>
<g>
</g>
<g>
</g>
<g>
</g>
<g>
</g>
<g>
</g>
</svg>
